<svg xmlns="http://www.w3.org/2000/svg" width="121" height="24.5" viewBox="0 0 121 24.5">
  <g id="Group_385" data-name="Group 385" transform="translate(-174.5 -32.5)">
    <g id="verified_user_black_24dp" transform="translate(174.5 32.5)">
      <path id="Path_115" data-name="Path 115" d="M0,0H24V24H0Z" fill="none"/>
      <path id="Path_116" data-name="Path 116" d="M12,1,3,5v6c0,5.55,3.84,10.74,9,12,5.16-1.26,9-6.45,9-12V5Zm7,10a10.473,10.473,0,0,1-7,9.93A10.473,10.473,0,0,1,5,11V6.3l7-3.11L19,6.3Zm-11.59.59L6,13l4,4,8-8L16.59,7.58,10,14.17Z" fill="#fff"/>
    </g>
    <line id="Line_15" data-name="Line 15" y2="24" transform="translate(201 33)" fill="none" stroke="#fff" stroke-width="1"/>
    <text id="Priority_One" data-name="Priority One" transform="translate(203.5 37)" fill="#fff" font-size="16" font-family="Inter-Regular, Inter"><tspan x="0" y="16">Priority One</tspan></text>
  </g>
</svg>
