<svg xmlns="http://www.w3.org/2000/svg" width="224" height="46" viewBox="0 0 224 46">
  <g id="Group_375" data-name="Group 375" transform="translate(-144.5 -26)">
    <g id="verified_user_black_24dp" transform="translate(144.5 26.196)">
      <path id="Path_115" data-name="Path 115" d="M0,0H41.375V45.3H0Z" fill="none"/>
      <path id="Path_116" data-name="Path 116" d="M20.687,1,3,8.873v11.81c0,10.924,7.547,21.14,17.687,23.62,10.141-2.48,17.687-12.7,17.687-23.62V8.873ZM34.444,20.684c0,8.9-5.856,17.1-13.757,19.546C12.787,37.788,6.931,29.58,6.931,20.684V11.432L20.687,5.311l13.757,6.122ZM11.667,21.845,8.9,24.62l7.861,7.873L32.479,16.747l-2.771-2.8L16.757,26.923Z" fill="#262424"/>
    </g>
    <line id="Line_15" data-name="Line 15" y2="46" transform="translate(191 26)" fill="none" stroke="#333" stroke-width="1"/>
    <text id="Priority_One" data-name="Priority One" transform="translate(195.5 36)" fill="#262424" font-size="30" font-family="Inter-Regular, Inter"><tspan x="0" y="29">Priority One</tspan></text>
  </g>
</svg>
