<svg xmlns="http://www.w3.org/2000/svg" width="2077" height="500" viewBox="0 0 2077 500">
  <g id="Group_387" data-name="Group 387" transform="translate(-203 -159.165)">
    <g id="Group_384" data-name="Group 384" transform="translate(28.5 126.665)">
      <g id="verified_user_black_24dp" transform="translate(174.5 32.5)">
        <path id="Path_115" data-name="Path 115" d="M0,0H450V500H0Z" fill="none"/>
        <path id="Path_116" data-name="Path 116" d="M225,1,3,91.545V227.364C3,353,97.72,470.478,225,499c127.28-28.522,222-146,222-271.636V91.545ZM397.667,227.364c0,102.316-73.507,196.71-172.667,224.779C125.84,424.074,52.333,329.68,52.333,227.364V120.973L225,50.574l172.667,70.4ZM111.78,240.719,77,272.636l98.667,90.545L373,182.091l-34.78-32.144L175.667,299.121Z" transform="translate(0)"/>
      </g>
      <line id="Line_15" data-name="Line 15" x1="0.498" y2="440" transform="translate(733 64)" fill="none" stroke="#000" stroke-width="10"/>
      <text id="Priority_One" data-name="Priority One" transform="translate(773 254.66)" font-size="100" font-family="Inter-Regular, Inter"><tspan x="0" y="97">Priority One</tspan></text>
    </g>
    <text id="Making_your_home_our_Priority" data-name="Making your home our Priority" transform="translate(798 506)" font-size="100" font-family="Inter-Regular, Inter"><tspan x="0" y="97">Making your home our Priority</tspan></text>
  </g>
</svg>
